HIERARCHY
ROOT Hips
{
	OFFSET -14.64140 90.27770 -84.91600
	CHANNELS 6 Xposition Yposition Zposition Zrotation Xrotation Yrotation
	JOINT Spine
	{
		OFFSET 0.00000 13.20850 -1.60436
		CHANNELS 3 Zrotation Xrotation Yrotation
		JOINT Spine1
		{
			OFFSET 0.00000 8.61716 0.00000
			CHANNELS 3 Zrotation Xrotation Yrotation
			JOINT Spine2
			{
				OFFSET 0.00000 8.61717 0.00000
				CHANNELS 3 Zrotation Xrotation Yrotation
				JOINT Spine3
				{
					OFFSET 0.00000 8.61717 0.00000
					CHANNELS 3 Zrotation Xrotation Yrotation
					JOINT Neck
					{
						OFFSET 0.00000 11.07920 1.10792
						CHANNELS 3 Zrotation Xrotation Yrotation
						JOINT Neck1
						{
							OFFSET 0.00000 7.08032 0.00000
							CHANNELS 3 Zrotation Xrotation Yrotation
							JOINT Head
							{
								OFFSET 0.00000 7.08031 0.00000
								CHANNELS 3 Zrotation Xrotation Yrotation
								End site
								{
									OFFSET 0.00000 0.00000 0.00000
								}
							}
						}
					}
					JOINT RightShoulder
					{
						OFFSET -0.01000 7.91373 5.19711
						CHANNELS 3 Zrotation Xrotation Yrotation
						JOINT RightArm
						{
							OFFSET -18.41580 0.00000 0.00000
							CHANNELS 3 Zrotation Xrotation Yrotation
							JOINT RightForeArm
							{
								OFFSET -29.11090 0.00000 0.00000
								CHANNELS 3 Zrotation Xrotation Yrotation
								JOINT RightHand
								{
									OFFSET -24.65040 0.00000 0.00000
									CHANNELS 3 Zrotation Xrotation Yrotation
									JOINT RightHandThumb1
									{
										OFFSET -5.35114 -0.85590 3.97906
										CHANNELS 3 Zrotation Xrotation Yrotation
										JOINT RightHandThumb2
										{
											OFFSET -4.52789 0.00000 0.00000
											CHANNELS 3 Zrotation Xrotation Yrotation
											JOINT RightHandThumb3
											{
												OFFSET -2.46976 0.00000 0.00000
												CHANNELS 3 Zrotation Xrotation Yrotation
												End site
												{
													OFFSET 0.00000 0.00000 0.00000
												}
											}
										}
									}
									JOINT RightHandIndex1
									{
										OFFSET -14.26970 0.00000 2.88139
										CHANNELS 3 Zrotation Xrotation Yrotation
										JOINT RightHandIndex2
										{
											OFFSET -5.48836 0.00000 0.00000
											CHANNELS 3 Zrotation Xrotation Yrotation
											JOINT RightHandIndex3
											{
												OFFSET -3.01859 0.00000 0.00000
												CHANNELS 3 Zrotation Xrotation Yrotation
												End site
												{
													OFFSET 0.00000 0.00000 0.00000
												}
											}
										}
									}
									JOINT RightHandMiddle1
									{
										OFFSET -14.26970 0.00000 -0.09147
										CHANNELS 3 Zrotation Xrotation Yrotation
										JOINT RightHandMiddle2
										{
											OFFSET -6.17441 0.00000 0.00000
											CHANNELS 3 Zrotation Xrotation Yrotation
											JOINT RightHandMiddle3
											{
												OFFSET -3.56743 0.00000 0.00000
												CHANNELS 3 Zrotation Xrotation Yrotation
												End site
												{
													OFFSET 0.00000 0.00000 0.00000
												}
											}
										}
									}
									JOINT RightHandRing1
									{
										OFFSET -12.69180 0.00000 -3.06433
										CHANNELS 3 Zrotation Xrotation Yrotation
										JOINT RightHandRing2
										{
											OFFSET -5.62556 0.00000 0.00000
											CHANNELS 3 Zrotation Xrotation Yrotation
											JOINT RightHandRing3
											{
												OFFSET -3.56744 0.00000 0.00000
												CHANNELS 3 Zrotation Xrotation Yrotation
												End site
												{
													OFFSET 0.00000 0.00000 0.00000
												}
											}
										}
									}
									JOINT RightHandPinky1
									{
										OFFSET -11.11390 0.00000 -6.03719
										CHANNELS 3 Zrotation Xrotation Yrotation
										JOINT RightHandPinky2
										{
											OFFSET -4.52789 0.00000 0.00000
											CHANNELS 3 Zrotation Xrotation Yrotation
											JOINT RightHandPinky3
											{
												OFFSET -2.46976 0.00000 0.00000
												CHANNELS 3 Zrotation Xrotation Yrotation
												End site
												{
													OFFSET 0.00000 0.00000 0.00000
												}
											}
										}
									}
								}
							}
						}
					}
					JOINT LeftShoulder
					{
						OFFSET 0.01000 7.91373 5.19711
						CHANNELS 3 Zrotation Xrotation Yrotation
						JOINT LeftArm
						{
							OFFSET 18.41580 0.00000 0.00000
							CHANNELS 3 Zrotation Xrotation Yrotation
							JOINT LeftForeArm
							{
								OFFSET 29.11090 0.00000 0.00000
								CHANNELS 3 Zrotation Xrotation Yrotation
								JOINT LeftHand
								{
									OFFSET 24.65040 0.00000 0.00000
									CHANNELS 3 Zrotation Xrotation Yrotation
									JOINT LeftHandThumb1
									{
										OFFSET 5.35114 -0.85590 3.97906
										CHANNELS 3 Zrotation Xrotation Yrotation
										JOINT LeftHandThumb2
										{
											OFFSET 4.52789 0.00000 0.00000
											CHANNELS 3 Zrotation Xrotation Yrotation
											JOINT LeftHandThumb3
											{
												OFFSET 2.46977 0.00000 0.00000
												CHANNELS 3 Zrotation Xrotation Yrotation
												End site
												{
													OFFSET 0.00000 0.00000 0.00000
												}
											}
										}
									}
									JOINT LeftHandIndex1
									{
										OFFSET 14.26970 0.00000 2.88139
										CHANNELS 3 Zrotation Xrotation Yrotation
										JOINT LeftHandIndex2
										{
											OFFSET 5.48836 0.00000 0.00000
											CHANNELS 3 Zrotation Xrotation Yrotation
											JOINT LeftHandIndex3
											{
												OFFSET 3.01859 0.00000 0.00000
												CHANNELS 3 Zrotation Xrotation Yrotation
												End site
												{
													OFFSET 0.00000 0.00000 0.00000
												}
											}
										}
									}
									JOINT LeftHandMiddle1
									{
										OFFSET 14.26970 0.00000 -0.09147
										CHANNELS 3 Zrotation Xrotation Yrotation
										JOINT LeftHandMiddle2
										{
											OFFSET 6.17440 0.00000 0.00000
											CHANNELS 3 Zrotation Xrotation Yrotation
											JOINT LeftHandMiddle3
											{
												OFFSET 3.56744 0.00000 0.00000
												CHANNELS 3 Zrotation Xrotation Yrotation
												End site
												{
													OFFSET 0.00000 0.00000 0.00000
												}
											}
										}
									}
									JOINT LeftHandRing1
									{
										OFFSET 12.69180 0.00000 -3.06433
										CHANNELS 3 Zrotation Xrotation Yrotation
										JOINT LeftHandRing2
										{
											OFFSET 5.62556 0.00000 0.00000
											CHANNELS 3 Zrotation Xrotation Yrotation
											JOINT LeftHandRing3
											{
												OFFSET 3.56744 0.00000 0.00000
												CHANNELS 3 Zrotation Xrotation Yrotation
												End site
												{
													OFFSET 0.00000 0.00000 0.00000
												}
											}
										}
									}
									JOINT LeftHandPinky1
									{
										OFFSET 11.11390 0.00000 -6.03719
										CHANNELS 3 Zrotation Xrotation Yrotation
										JOINT LeftHandPinky2
										{
											OFFSET 4.52789 0.00000 0.00000
											CHANNELS 3 Zrotation Xrotation Yrotation
											JOINT LeftHandPinky3
											{
												OFFSET 2.46976 0.00000 0.00000
												CHANNELS 3 Zrotation Xrotation Yrotation
												End site
												{
													OFFSET 0.00000 0.00000 0.00000
												}
											}
										}
									}
								}
							}
						}
					}
					JOINT pCube4
					{
						OFFSET 0.00000 10.91090 1.10792
						CHANNELS 3 Zrotation Xrotation Yrotation
						End site
						{
							OFFSET 0.00000 0.00000 0.00000
						}
					}
				}
			}
		}
	}
	JOINT RightUpLeg
	{
		OFFSET -9.98441 0.00000 0.00000
		CHANNELS 3 Zrotation Xrotation Yrotation
		JOINT RightLeg
		{
			OFFSET 0.00000 -42.11790 0.00000
			CHANNELS 3 Zrotation Xrotation Yrotation
			JOINT RightFoot
			{
				OFFSET 0.00000 -45.00020 -0.00001
				CHANNELS 3 Zrotation Xrotation Yrotation
				JOINT RightForeFoot
				{
					OFFSET 0.00000 -3.74820 0.00000
					CHANNELS 3 Zrotation Xrotation Yrotation
					JOINT RightToeBase
					{
						OFFSET 0.00000 0.06325 14.43120
						CHANNELS 3 Zrotation Xrotation Yrotation
						End site
						{
							OFFSET 0.00000 0.00000 0.00000
						}
					}
				}
			}
		}
	}
	JOINT LeftUpLeg
	{
		OFFSET 9.98441 0.00000 0.00000
		CHANNELS 3 Zrotation Xrotation Yrotation
		JOINT LeftLeg
		{
			OFFSET 0.00000 -42.11800 0.00000
			CHANNELS 3 Zrotation Xrotation Yrotation
			JOINT LeftFoot
			{
				OFFSET 0.00000 -45.00070 0.00000
				CHANNELS 3 Zrotation Xrotation Yrotation
				JOINT LeftForeFoot
				{
					OFFSET 0.00000 -3.74824 0.00000
					CHANNELS 3 Zrotation Xrotation Yrotation
					JOINT LeftToeBase
					{
						OFFSET 0.00000 0.06325 14.43110
						CHANNELS 3 Zrotation Xrotation Yrotation
						End site
						{
							OFFSET 0.00000 0.00000 0.00000
						}
					}
				}
			}
		}
	}
}
MOTION
Frames: 4
Frame Time: 0.050000
-0.014451323063281932 -0.020983527126727394 0.007306876512875937 0.03142862659216344 -0.025280438604696427 -0.009834431111699453 -1.659790700520764 1.074710894963814 -1.0997130389289014 -0.8053945332007706 3.5410294532499984 0.33056024433780706 -1.1245277566775926 -1.8974350483819515 -0.7538636684237487 0.14504049994963183 -0.25212067664218585 -0.7705036577336564 0.5862068144543935 11.925918318125529 -2.185966430942992 0.2313098120723147 -0.5206967754579115 -6.388189806183478 0.952586517436565 -15.95201673499793 -0.5489236929189669 -5.516110839071827 2.1106266579386 -15.982359940095247 70.07453948986998 -5.111635825970269 4.640006166270741 31.028199518632373 9.550046783118052 89.87041809920301 20.3995988571927 -0.4308350616802271 -3.78243118579334 4.527490004551984 -0.1739533160713075 -1.5576823379494988 -0.03236507947907083 -0.011610576410083572 -56.211838540772504 0.02763293263333904 0.04926989459485119 -56.27772050342626 -38.7353478506655 -0.002288877618495179 0.032779908355602384 -0.012252295692320583 -0.014189147258562679 0.038132175472656626 -0.009972338235871129 -0.020913904645963155 -8.071686208289622e-05 -36.73731681898182 -0.02697662218667477 -0.006078595827634302 -0.04757754825444452 0.032353152992596 -0.032251596045439056 -0.024227508310729742 -0.009188518091554106 -0.04755663926127402 -19.7880575035525 -0.008236104860615828 0.04080722586341237 0.0064924918098374935 -0.025057115193014422 -0.009864421495812578 0.01586149976575952 0.006026874686244457 0.022619386699705136 24.0742186127553 -0.030008725098679374 0.0497041737934562 28.852183760021713 0.015330779812788112 -0.02665388470229308 28.91102081551233 0.03502015359134183 0.029072586502693617 5.3661366210219725 1.5569744871413174 13.76537075405844 -67.42787853202658 17.261617981255952 -4.51665188565986 4.144134039127412 -5.283389577298912 -78.23755787756336 -12.975378367531047 -0.7048953543015707 0.07575437750547077 -0.5188478785500305 0.02924079837727732 -8.101160192453115 0.023783214767542984 -0.033031727704502946 44.531667933222025 -0.010683735726732946 -0.04530053383434922 44.55043833120001 12.464311945650309 0.028952666843779028 -0.043427359855969586 -0.03061590147159112 -0.018666054544334194 0.04717146797914845 0.0046473371273661 0.02950905153362867 -0.036240360297176664 11.062113953565815 0.016011895606789606 0.007316237236104415 0.01706497070841428 0.0007579847947313652 -0.018703938176553792 -0.03150020092367526 -0.017630491743437206 0.004319928605351857 4.768161691948293 -0.028512055186875346 0.011375106991510954 -0.021184241568121265 -0.015373749389754297 -0.01361528925825901 -0.0057172439466639 -0.043676121802113305 0.024182109507840985 -5.620211585563303 -0.014141497621077566 -0.004067030206981482 -6.681685139180576 0.022712098987630023 -0.041574765976125486 -6.706253842283282 -0.04284670874537711 -0.016454414165215706 -0.005599647285359432 0.024271990698954374 -0.04566023459363261 8.068207663485733 3.5057984525169203 -19.239249863644595 -0.0024587905358045762 10.354761943040124 0.028456502990334184 -5.612099241070287 -15.631957829023293 3.1578281301510063 0.04262005197089864 0.04306398630086306 0.023563889573516253 0.020431743887603368 4.70836941057501 0.03163050848488495 12.447296018388027 -8.241249192173159 6.927611147995084 -0.046574902102006495 46.40332168710277 -0.0276809670875492 -4.295968337539949 -14.702177399611868 -3.806713193649035 0.009210785665960697 -0.00962389784405347 -0.01795262214298413 0.039420351405063676 -10.779147055621989 -0.029264160675829404 
-0.01191443543136008 -0.027849984914657608 0.03553852042448864 -0.04057935836825711 -0.033720015772390935 -0.04331287083191531 -1.8597813811457677 0.9060397776068124 -1.035180093617615 -0.8681083538864778 3.6292003165978124 0.36814213281795694 -1.1128893711166128 -1.903560262600249 -0.8984137562164031 0.05611051631710252 -0.30183798905894754 -0.8177598989485861 0.4260450925407423 12.068480950549306 -1.7777358364639262 0.20221701042430365 -0.4685458219117222 -5.418531266814786 0.783736146358637 -15.707339602761033 -0.43313475400669976 -5.448712808415322 2.0372553120586083 -15.781346512130153 69.95551939510885 -4.340893946901869 4.426636725241319 31.408866876843838 9.559477692872882 89.60540301287938 20.424110911033548 -0.43222769163941255 -3.707833378834767 4.566816951221689 -0.17020211978723393 -1.627290153834346 0.014332512679418027 0.031176626444596657 -56.23326695393807 -0.016337533197005875 -0.011966690629179343 -56.202319635696995 -38.731975320895366 0.026178672872517413 -0.024920809235720338 -0.03879577883696235 -0.025834643879787466 0.046836567802321157 -0.0003728842444364254 0.034792613723942684 -0.002354584741284218 -36.72372811725543 -0.0008214007948038734 -0.03384006829921377 0.03774533740746874 -0.04081751871533211 -0.029219721883695992 0.014877250390333427 -0.049427752701956 0.014535725886327585 -19.75363340759759 -0.005152797316942582 -0.028029549846673822 -0.04873563715137056 0.022031588879433923 -0.03380620258268281 -0.033022296186503444 0.027282749914892625 0.02135883741602635 24.049590641557316 -0.023811147659103468 0.03784337073194904 28.88979896620707 -0.024892351059781034 -0.0052993785399074 28.89662699703895 0.01666504221310641 -0.012445446445488026 5.891931126336574 1.6085278155864522 13.765077116605632 -67.20425716237449 15.541181960829414 -5.8712174870301705 3.641524708365226 -5.194860427628348 -79.94651717221082 -11.678186038521764 -0.33000183722381826 -0.2749672712090613 -0.49562683811887953 0.025185695386812992 -8.081552425520979 -0.045808174173998246 -0.040109928900324714 44.541660115702676 -0.031672700394759966 0.027809594588549147 44.52164163757539 12.428735923554264 0.009385913248614921 -0.043931938098741706 -0.016239835084826855 -0.010313511481274407 0.047290752843301045 -0.028966074232944297 0.02222933917822039 0.02587646578726755 11.072731559968652 -0.0015081079970482795 -0.03659715875973123 0.002586909265223694 0.03210141883337647 -0.02655218403881521 0.03308447133163777 -0.021906010326511686 -0.011492582789548898 4.757439243273872 -0.025943864051949005 -0.004952001156050083 -0.03085516909482898 0.027499344901516218 -0.0080288648788414 -0.040889931557757435 -0.04536515853201115 -0.046294203875225336 -5.60764039296136 -0.022100742800138996 0.00827183320301546 -6.694099449416293 0.04659287682877194 -0.0045337320003258205 -6.724870273773754 -0.015238816462747379 0.006454544028118607 0.01522565510198336 0.012871551979037594 0.042229266398372475 8.03305379402305 3.483283193152232 -19.26924859523466 0.013023847369237543 10.42591081362636 -0.017244294861075437 -5.574770085710289 -15.657233171574784 3.1984727028234246 0.02284353854474234 0.048725420568007126 -0.021246608730053174 -0.029177830474870707 4.737767225794728 0.020979991740856692 12.463853884473608 -8.24247350053887 6.859856440734257 -0.01812386590630077 46.40302607746138 -0.008812439590940859 -4.3144906081920675 -14.76986892956408 -3.8315645137516894 -0.035718273539668895 0.023978485831478588 -0.015131547086218696 -0.004059261518444654 -10.751275194534696 0.030690894421206462 
-0.024947152287333386 0.0008847555147041722 -0.048353579209340136 -0.04055179810497629 0.0021114998325854175 0.023933053566338902 -1.9908194065205458 0.7278608089748925 -0.9720096699162714 -0.8659239043569625 3.5363675426749905 0.32909457832704614 -1.1552486267795052 -2.019659478684718 -0.9700646957849189 -0.009463190097999919 -0.27262191091724514 -0.75252084198108 0.2721193615574889 12.331347195681834 -1.3931431397575467 0.1873119152222308 -0.22926467169468856 -4.528706656639982 0.6203774553827484 -15.459561656889925 -0.3904632903290475 -5.490597557247702 1.9998015673520981 -15.730101628845823 69.69745049571017 -3.885241572328145 4.4137094186402654 31.328855810760942 9.347774787621708 89.87319057883411 20.57183330099548 -0.3508380062374726 -3.7200111417554536 4.503268189238769 -0.16941094316520922 -1.6123365105117171 0.016791425300222682 -0.022963108491708132 -56.24255893853722 -0.003985534183935362 -0.0330612262794044 -56.20766473381548 -38.771064712971224 0.03155179368512155 -0.04194404616592616 -0.011542574527798312 0.004448019766325239 0.008881513391540752 0.02108741234720423 0.01163841092477148 0.03306098543030008 -36.72691963031088 -0.021475060834598343 -0.0364879805127055 0.030738293442789878 -0.023628069290986875 0.010046061573198126 -0.04902158437947709 0.013774222091943076 -0.041669708316359313 -19.725333356045827 -0.03378618331708211 0.018457259063478594 -0.02337329171364127 -0.025451365645928162 0.03780631047619138 -0.041218937569632075 -0.02946231563794907 -0.0028701688606539515 24.090062267295956 -0.020378662243224953 0.007745562275271738 28.863035446269585 0.03645282171871009 0.03151423755214933 28.832429960493734 -0.03601793889609242 -0.023876946333997517 6.404478853687182 1.7002184595674947 13.816775007634595 -66.9296612671331 13.961473377132636 -7.435202125216141 3.210656420754199 -5.2629173774709415 -82.57698686513753 -10.391110355128207 -0.40195405777722126 -0.3693362307177164 -0.46747611560021285 0.09570401366720661 -8.170020408887709 -0.012408687884950323 -0.029196972772545682 44.60726977662538 -0.04558455321276229 -0.026738366962050734 44.52661714415697 12.428882355416004 0.04718945870595825 -0.025617955657107307 -0.0003021989474282562 0.00533603034659057 0.02289605239998044 0.032440063769879665 -0.03680967353108044 0.0334557423805022 11.10195226982085 -0.01864723243504136 0.03257798630933892 0.016503663817998657 0.0017161624416026362 -0.04539483943963844 -0.016239870740638065 0.027414262608221728 -0.03174597924003477 4.75880393519936 -0.04800195849243953 -0.017207557027459287 0.011826615312907426 -0.01593861612964813 0.008821872705987714 0.029457536277501712 0.030054472370734924 -0.01552833390094037 -5.554696052407893 -0.0015124488958198905 0.013171222634801166 -6.7455840836078576 -0.019294625790010483 -0.029747051717207956 -6.713795917780004 -0.03887787651419692 -0.04995457712566906 -0.006427959524148262 -0.033775176318559245 -0.044605858081836584 8.068869309569514 3.461730781251361 -19.227087406893645 -0.012202003744250256 10.43600454684954 -0.013544348591504558 -5.6539688950384654 -15.670170489778977 3.1456546090148785 -0.04341972462449922 0.021064968673753248 -0.03088734516318388 -0.008145354916977057 4.653657444963469 -0.011078668988466612 12.466603370482463 -8.230223561390321 6.838734679817595 -0.047242657710818634 46.358428978427156 -0.009023231619338778 -4.323775095122253 -14.744744127313684 -3.879171954316813 0.027970275732720668 -0.005754639652622052 0.049111535279239275 0.02264600213921065 -10.697895882127296 -0.004443148925019483 
0.03475851409756395 0.011865524245201821 0.014039810317012952 -0.04239060854082896 -0.03443521776398686 -0.037602036941848445 -2.1215307442491618 0.5551345346640971 -0.9243067126150135 -0.8599224043801007 3.612988641666152 0.33969042691362433 -1.1078922184386168 -2.0813345788499196 -1.0786396347037366 0.004721888255644728 -0.19057850009295574 -0.7851109479372189 0.1577254315934617 12.566824846768883 -0.986879011982751 0.10964513583438579 -0.03501545607379149 -3.6775005234639013 0.4575780303260339 -15.132752364595442 -0.33055005012298294 -5.431922863037261 2.0057129522709047 -15.606635344346936 69.32596417044117 -3.564449078457392 4.644540326074248 30.933705544780953 8.744864853384623 91.18352998559055 20.664323223774222 -0.3925602569097757 -3.939113777223974 4.547665433301816 -0.10427507765298409 -1.5577014123343735 0.02721514580364392 -0.047791150081057235 -56.268122408053685 0.0023038887261119453 0.006530567947791663 -56.247126285421004 -38.77465393768221 -0.004645494897909318 0.03663724430490395 0.006146669176374947 -0.035335975147477584 0.0008453546752719027 0.006229061952068897 -0.04390985070321054 0.009501338719017247 -36.72031789984886 -0.028126648294411916 -0.02627696383980625 0.002184769868401841 0.04170503726948706 0.010368869496165094 0.02468475900124876 0.02900001702221582 0.022617334961328346 -19.783261386101486 -0.024312505102990285 0.0452274933838007 -0.019927461319023967 -0.014528520700238974 -0.03958778148412116 -0.005162369756926925 -0.02690268641465383 -0.01778419436441491 24.011484810728838 0.023472199000843297 -0.03542095382363784 28.864993838027022 0.021159834533405582 -0.02432084583944306 28.868036252517033 -0.013956224005244263 -0.01788833152533051 6.8666565092845895 1.749304838938955 13.85208981737546 -66.63416974253545 13.169740285632283 -8.827506837010713 3.9645149007328535 -6.085477493912858 -86.76677156651996 -8.94723118671399 -0.5850107422182921 -0.4590004177358029 -0.4389582123627839 0.10061693454529724 -8.122578831896687 -0.008858646512402703 0.03873739912241725 44.51864142637687 0.006379793044322632 0.004524581766581001 44.53645178706252 12.487609778082446 0.04484697435295855 -0.04997385944671805 -0.016441608604909674 0.021956452624601955 -0.0014993804979666616 -0.03757438211425944 0.02555095091829129 0.0373582021531256 11.069972756514234 -0.03432669642236394 -0.04208276644123634 0.009351225117498961 -0.022363338582252056 0.020244759345552765 0.0028008140584727284 0.032380242209295404 0.012605906119078405 4.791744641835168 0.0024674063981260587 0.03981713337386052 0.026694948471832146 -0.015349783070967505 -0.00425305072693367 -0.013450819624869624 -0.01588982503962371 0.008287464324143115 -5.624892867386401 0.04022258706429153 -0.000527088731048845 -6.72633221962674 -0.01614812337581923 0.005751482073922929 -6.765134844544936 -0.013682377359252177 -0.003243346129925575 -0.03355404739814686 0.0473917527372396 0.022762598700579527 8.041431218671216 3.517340595702137 -19.265236603275614 -0.017980791594879923 10.36885616908087 0.029022060106857782 -5.6149063915777875 -15.654585291277119 3.1605831523129857 0.006204788453807458 -0.03370835545780551 -0.044555886762035785 0.019097365870173674 4.7222872026609926 0.04665394692025477 12.41262264664888 -8.28752273830201 6.883123887626803 0.005829946922451051 46.41758764933835 0.024444047050736505 -4.314954953495265 -14.71371040684622 -3.8386388682931973 -0.03486912604724634 -0.013423874613438207 -0.04919581814673546 -0.010445234423371322 -10.711900003957068 -0.022765783940915843 
